<?xml version="1.0" encoding="UTF-8"?>
<svg id="Layer_2" data-name="Layer 2" xmlns="http://www.w3.org/2000/svg" viewBox="0 0 25.77 25.77">
  <defs>
    <style>
      .cls-1 {
        fill: #c1d3fe;
      }
    </style>
  </defs>
  <g id="Layer_1-2" data-name="Layer 1">
    <path class="cls-1" d="m22.93,5.29c-.23-.6-.51-1.03-.96-1.48-.45-.45-.88-.73-1.48-.96-.45-.18-1.14-.39-2.39-.44-1.36-.06-1.77-.08-5.21-.08s-3.85.01-5.21.08c-1.26.06-1.94.27-2.39.44-.6.23-1.03.51-1.48.96-.45.45-.73.88-.96,1.48-.18.45-.39,1.14-.44,2.39-.06,1.36-.08,1.77-.08,5.21s.01,3.85.08,5.21c.06,1.26.27,1.94.44,2.39.23.6.51,1.03.96,1.48.45.45.88.73,1.48.96.45.18,1.14.39,2.39.44,1.36.06,1.77.08,5.21.08s3.85-.01,5.21-.08c1.26-.06,1.94-.27,2.39-.44.6-.23,1.03-.51,1.48-.96.45-.45.73-.88.96-1.48.18-.45.39-1.14.44-2.39.06-1.36.08-1.77.08-5.21s-.01-3.85-.08-5.21c-.06-1.26-.27-1.94-.44-2.39Zm-10.04,14.21c-3.65,0-6.62-2.96-6.62-6.62s2.96-6.62,6.62-6.62,6.62,2.96,6.62,6.62-2.96,6.62-6.62,6.62Zm6.88-11.95c-.85,0-1.55-.69-1.55-1.55s.69-1.55,1.55-1.55,1.55.69,1.55,1.55-.69,1.55-1.55,1.55Zm-6.88,1.04c-2.37,0-4.29,1.92-4.29,4.29s1.92,4.29,4.29,4.29,4.29-1.92,4.29-4.29-1.92-4.29-4.29-4.29Zm12.81,9.61c-.06,1.37-.28,2.31-.6,3.13-.33.85-.77,1.57-1.49,2.28-.72.72-1.43,1.16-2.28,1.49-.82.32-1.76.54-3.13.6-1.37.06-1.81.08-5.31.08s-3.94-.02-5.31-.08c-1.37-.06-2.31-.28-3.13-.6-.85-.33-1.57-.77-2.28-1.49-.72-.72-1.16-1.43-1.49-2.28-.32-.82-.54-1.76-.6-3.13-.06-1.37-.08-1.81-.08-5.31s.02-3.94.08-5.31c.06-1.37.28-2.31.6-3.13.33-.85.77-1.57,1.49-2.28.72-.72,1.43-1.16,2.28-1.49.82-.32,1.76-.54,3.13-.6,1.37-.06,1.81-.08,5.31-.08s3.94.01,5.31.08c1.37.06,2.31.28,3.13.6.85.33,1.57.77,2.28,1.49.72.72,1.16,1.44,1.49,2.28.32.82.54,1.76.6,3.13.06,1.37.08,1.81.08,5.31s-.01,3.94-.08,5.31Z"/>
  </g>
</svg>