<?xml version="1.0" encoding="UTF-8"?>
<svg id="Layer_2" data-name="Layer 2" xmlns="http://www.w3.org/2000/svg" viewBox="0 0 22.02 25.26">
  <defs>
    <style>
      .cls-1 {
        fill: #c1d3fe;
      }
    </style>
  </defs>
  <g id="Layer_1-2" data-name="Layer 1">
    <path class="cls-1" d="m18.82,5.14c-1.43-.89-2.46-2.36-2.76-4.08-.03-.16-.05-.33-.07-.5v-.56h-4.35v17.27c0,2.01-1.64,3.64-3.66,3.64-.59,0-1.15-.14-1.65-.39-1.19-.6-2.01-1.84-2.01-3.27,0-2.02,1.64-3.66,3.66-3.66.39,0,.76.06,1.11.17v-4.42c-.36-.05-.73-.07-1.1-.07-4.42,0-8,3.58-8,7.99,0,2.77,1.41,5.2,3.54,6.64,0,0,0,0,0,0,1.27.85,2.8,1.35,4.45,1.35,4.42,0,8-3.58,8-7.99v-8.82c1.7,1.21,3.78,1.93,6.03,1.93v-4.32c-1.13,0-2.24-.31-3.2-.91Z"/>
  </g>
</svg>