<?xml version="1.0" encoding="UTF-8"?>
<svg id="Layer_2" data-name="Layer 2" xmlns="http://www.w3.org/2000/svg" viewBox="0 0 26.31 18.54">
  <defs>
    <style>
      .cls-1 {
        fill: #c1d3fe;
      }
    </style>
  </defs>
  <g id="Layer_1-2" data-name="Layer 1">
    <path class="cls-1" d="m25.76,2.9c-.3-1.14-1.19-2.04-2.32-2.35-2.06-.55-10.28-.55-10.28-.55,0,0-8.23,0-10.28.55C1.75.86.85,1.76.55,2.9c-.55,2.06-.55,6.37-.55,6.37,0,0,0,4.31.55,6.37.3,1.14,1.2,2.04,2.33,2.35,2.06.55,10.28.55,10.28.55,0,0,8.23,0,10.28-.55,1.13-.31,2.02-1.21,2.32-2.35.55-2.06.55-6.37.55-6.37,0,0,0-4.31-.55-6.37Zm-15.3,10.28v-7.83l6.88,3.91-6.88,3.91Z"/>
  </g>
</svg>